# xmcd
#
# Track frame offsets:
#	150
#	13862
#	28250
#	41462
#	54062
#	65500
#	78800
#	89687
#	101437
#	115112
#	128437
#	141412
#	156337
#	170162
#	183487
#	196800
#	210975
#	224750
#	236662
#	249725
#	261987
#
# Disc length: 3660 seconds
#
# Revision: 0
# Processed by: cddbd v1.5.1PL2 Copyright (c) Steve Scherf et al.
# Submitted via: audiograbber 1.83.01
#
DISCID=2e0e4a15
DTITLE=Rosetta Howard - Complete Recorded Works 1939-1947
DYEAR=1994
DGENRE=Blues
TTITLE0=Come Easy Go Easy
TTITLE1=My Blues Is Like Whiskey
TTITLE2=The Jive Is Here
TTITLE3=My Downfall
TTITLE4=Hog-Wild Blues
TTITLE5=Plain Lenox Avenue
TTITLE6=Men Are Like Street Cars
TTITLE7=He's Mine All Mine
TTITLE8=Headin' For The River
TTITLE9=Ebony Rhapsody
TTITLE10=I Keep On Worrying
TTITLE11=When I Been Drinking
TTITLE12=Help Me Baby
TTITLE13=It's Hard To Go Through Life Alone
TTITLE14=Where Shall I Go
TTITLE15=Too Many Drivers
TTITLE16=Why Be So Blue
TTITLE17=Sweep Your Blues Away
TTITLE18=It Was You
TTITLE19=You Made Me Love You
TTITLE20=Plough Hand Blues
EXTD=
EXTT0=
EXTT1=
EXTT2=
EXTT3=
EXTT4=
EXTT5=
EXTT6=
EXTT7=
EXTT8=
EXTT9=
EXTT10=
EXTT11=
EXTT12=
EXTT13=
EXTT14=
EXTT15=
EXTT16=
EXTT17=
EXTT18=
EXTT19=
EXTT20=
PLAYORDER=
